<svg width="16" height="16" viewBox="0 0 16 16" fill="none" xmlns="http://www.w3.org/2000/svg">
<path d="M7.99968 0C3.58868 0 0 3.5888 0 8C0 12.4112 3.58868 16 7.99968 16C12.4109 16 16 12.4112 16 8C16 3.5888 12.4109 0 7.99968 0ZM7.99968 14.9508C4.16712 14.9508 1.0492 11.8326 1.0492 8C1.0492 4.16732 4.16708 1.04924 7.99968 1.04924C11.8326 1.04924 14.9507 4.16736 14.9507 8C14.9508 11.8326 11.8326 14.9508 7.99968 14.9508Z" fill="#EDEDED"/>
<path d="M10.6189 5.38117C10.414 5.17625 10.0821 5.17625 9.87713 5.38117L8.00001 7.25817L6.12289 5.38117C5.91797 5.17625 5.58593 5.17625 5.38101 5.38117C5.17609 5.58597 5.17609 5.91821 5.38101 6.12301L7.25789 8.00001L5.38077 9.87705C5.17585 10.0818 5.17585 10.4139 5.38077 10.6189C5.48321 10.7214 5.61749 10.7726 5.75169 10.7726C5.88589 10.7726 6.02013 10.7214 6.12253 10.6189L8.00001 8.74173L9.87713 10.619C9.97961 10.7215 10.1138 10.7727 10.248 10.7727C10.3821 10.7727 10.5164 10.7215 10.6189 10.619C10.8238 10.4142 10.8238 10.082 10.6189 9.87721L8.74181 8.00001L10.6189 6.12301C10.8239 5.91821 10.8239 5.58609 10.6189 5.38117Z" fill="#EDEDED"/>
</svg>
