<svg width="22" height="22" viewBox="0 0 26 26" fill="none" xmlns="http://www.w3.org/2000/svg">
<path d="M4.03496 14.1818H17.7271C18.3798 14.1818 18.9089 13.6526 18.9089 12.9999C18.9089 12.3473 18.3798 11.8181 17.7271 11.8181H4.03496L5.56298 10.2902C6.02452 9.82873 6.02452 9.0804 5.56298 8.61886C5.10159 8.15732 4.35327 8.15732 3.89165 8.61886L0.34643 12.1641C0.319012 12.1914 0.29317 12.22 0.268588 12.25C0.2626 12.2573 0.257479 12.2652 0.251648 12.2726C0.233606 12.2956 0.215879 12.3186 0.199648 12.3428C0.194921 12.3499 0.191061 12.3574 0.186412 12.3646C0.170182 12.39 0.154267 12.4156 0.139927 12.4423C0.13717 12.4476 0.134885 12.4532 0.132127 12.4584C0.117236 12.4873 0.102897 12.5167 0.0903697 12.5469C0.0887939 12.5506 0.0876909 12.5546 0.0861939 12.5583C0.0733515 12.5902 0.0614545 12.6224 0.0513697 12.6556C0.0500303 12.6597 0.0493212 12.6641 0.0481394 12.6683C0.0386061 12.7009 0.0298606 12.7337 0.0231636 12.7674C0.0211939 12.7774 0.0203273 12.7877 0.0185152 12.7978C0.0136303 12.8257 0.00874545 12.8536 0.00598788 12.882C0.0019697 12.921 0 12.9604 0 12.9999C0 13.0395 0.0019697 13.0789 0.00598788 13.118C0.00874545 13.1468 0.0137879 13.1749 0.0185939 13.2031C0.0203273 13.2128 0.0211939 13.2228 0.0231636 13.2325C0.0299394 13.2665 0.0386061 13.2996 0.0482182 13.3325C0.0494 13.3364 0.0501091 13.3405 0.0512909 13.3443C0.0614545 13.3776 0.0733515 13.4102 0.0863515 13.4423C0.0877697 13.4458 0.0887939 13.4495 0.0902909 13.453C0.102897 13.4835 0.117315 13.5129 0.132364 13.542C0.134964 13.5471 0.13717 13.5525 0.139848 13.5576C0.154345 13.5845 0.170339 13.6103 0.186806 13.6359C0.191218 13.6428 0.195 13.6502 0.19957 13.657C0.215879 13.6813 0.233764 13.7045 0.251727 13.7275C0.257479 13.7349 0.2626 13.7427 0.268509 13.7499C0.29317 13.7798 0.319012 13.8085 0.346352 13.8358L3.89157 17.381C4.12234 17.6119 4.42481 17.7272 4.72727 17.7272C5.02974 17.7272 5.33221 17.6119 5.5629 17.381C6.02444 16.9195 6.02444 16.1712 5.5629 15.7097L4.03496 14.1818Z" fill="#EDEDED"/>
<path d="M16.3327 3.33264C13.1068 3.33264 10.1054 4.93298 8.30394 7.61342C7.93994 8.15509 8.08396 8.88939 8.62563 9.25347C9.16737 9.61747 9.9016 9.4736 10.2658 8.93178C11.6273 6.90575 13.8953 5.6962 16.3327 5.6962C20.3599 5.69628 23.6364 8.97267 23.6364 13C23.6364 17.0273 20.3599 20.3037 16.3327 20.3037C13.9024 20.3037 11.6382 19.0996 10.2756 17.0828C9.91011 16.5419 9.17565 16.3998 8.63469 16.7651C8.09389 17.1305 7.9516 17.8651 8.31702 18.4059C10.1198 21.0743 13.1162 22.6673 16.3327 22.6673C21.6632 22.6673 26 18.3306 26 13C26 7.66936 21.6632 3.33264 16.3327 3.33264Z" fill="#EDEDED"/>
</svg>
