<svg width="16" height="17" viewBox="0 0 16 17" fill="none" xmlns="http://www.w3.org/2000/svg">
<path d="M8 0.579834C3.58874 0.579834 0 3.24813 0 6.52795C0 11.4147 7.20371 16.1861 7.51048 16.3869C7.65032 16.4784 7.82512 16.5243 8 16.5243C8.17488 16.5243 8.34968 16.4785 8.48959 16.3869C8.79622 16.1862 16 11.4147 16 6.52795C16 3.24813 12.4113 0.579834 8 0.579834ZM8 15.2191C6.40734 14.0721 1.48149 10.2248 1.48149 6.52795C1.48149 3.85531 4.4057 1.68091 8 1.68091C11.5943 1.68091 14.5185 3.85531 14.5185 6.52795C14.5185 10.2248 9.59266 14.072 8 15.2191Z" fill="black"/>
<path d="M7.99999 3.75708C5.95775 3.75708 4.29633 5.0001 4.29633 6.52797C4.29633 8.05589 5.95775 9.29885 7.99999 9.29885C10.0422 9.29885 11.7037 8.05589 11.7037 6.52797C11.7037 5.0001 10.0422 3.75708 7.99999 3.75708ZM7.99999 8.19778C6.77463 8.19778 5.77775 7.44871 5.77775 6.52797C5.77775 5.60727 6.77463 4.85815 7.99999 4.85815C9.22535 4.85815 10.2222 5.60722 10.2222 6.52797C10.2222 7.44871 9.22535 8.19778 7.99999 8.19778Z" fill="black"/>
</svg>
