<svg width="18" height="17" viewBox="0 0 18 17" fill="none" xmlns="http://www.w3.org/2000/svg">
<path d="M9.04483 0.234131C4.54881 0.234131 0.891113 2.98807 0.891113 6.37316C0.891113 11.4167 8.23323 16.3413 8.5459 16.5486C8.68843 16.643 8.86659 16.6903 9.04483 16.6903C9.22306 16.6903 9.40123 16.6431 9.54383 16.5486C9.85635 16.3414 17.1985 11.4168 17.1985 6.37316C17.1985 2.98807 13.5408 0.234131 9.04483 0.234131ZM9.04483 15.3433C7.42157 14.1594 2.40107 10.1887 2.40107 6.37316C2.40107 3.61473 5.38146 1.37055 9.04483 1.37055C12.7082 1.37055 15.6886 3.61473 15.6886 6.37316C15.6886 10.1887 10.6681 14.1594 9.04483 15.3433Z" fill="black"/>
<path d="M9.04485 3.51343C6.96337 3.51343 5.27002 4.79634 5.27002 6.37325C5.27002 7.95022 6.96337 9.23308 9.04485 9.23308C11.1263 9.23308 12.8197 7.95022 12.8197 6.37325C12.8197 4.79634 11.1263 3.51343 9.04485 3.51343ZM9.04485 8.09666C7.79595 8.09666 6.77991 7.32355 6.77991 6.37325C6.77991 5.42301 7.79595 4.64984 9.04485 4.64984C10.2938 4.64984 11.3098 5.42295 11.3098 6.37325C11.3098 7.32355 10.2938 8.09666 9.04485 8.09666Z" fill="black"/>
</svg>
