<svg width="52" height="56" viewBox="0 0 52 56" fill="none" xmlns="http://www.w3.org/2000/svg">
<path d="M22.4298 43.4315C27.1662 43.4315 31.7086 41.3994 35.0577 37.7824C38.4069 34.1653 40.2884 29.2595 40.2884 24.1442C40.2884 19.0289 38.4069 14.1231 35.0577 10.506C31.7086 6.88894 27.1662 4.85689 22.4298 4.85689C17.6934 4.85689 13.151 6.88894 9.80186 10.506C6.45272 14.1231 4.57119 19.0289 4.57119 24.1442C4.57119 29.2595 6.45272 34.1653 9.80186 37.7824C13.151 41.3994 17.6934 43.4315 22.4298 43.4315ZM39.024 38.791L51 51.725L47.9676 55L35.9916 42.0659C31.7346 45.8233 26.3033 47.6701 20.821 47.2242C15.3387 46.7783 10.2247 44.0739 6.53678 39.6703C2.84883 35.2667 0.868995 29.5007 1.00673 23.5649C1.14447 17.6291 3.38925 11.9775 7.2768 7.77895C11.1644 3.58039 16.3973 1.15603 21.8934 1.00727C27.3896 0.858515 32.7284 2.99673 36.8058 6.97972C40.8832 10.9627 43.3873 16.4858 43.8001 22.4067C44.213 28.3276 42.5031 34.1934 39.024 38.791Z" fill="white" stroke="black" stroke-width="0.00615385"/>
</svg>
