<svg width="22" height="22" viewBox="0 0 26 26" fill="none" xmlns="http://www.w3.org/2000/svg">
<g clip-path="url(#clip0_5_123)">
<path d="M17.3633 2.975C13.3969 -0.99134 6.94144 -0.99134 2.97511 2.975C-0.990369 6.94219 -0.990369 13.3968 2.97511 17.364C6.50723 20.8953 12.0083 21.2736 15.9721 18.5162C16.0555 18.9108 16.2464 19.2874 16.5533 19.5944L22.3296 25.3706C23.1713 26.2107 24.5316 26.2107 25.369 25.3706C26.2099 24.5297 26.2099 23.1695 25.369 22.3312L19.5928 16.5532C19.2875 16.2488 18.9101 16.0571 18.5154 15.9737C21.2746 12.0091 20.8963 6.50884 17.3633 2.975ZM15.5396 15.5404C12.5784 18.5016 7.75913 18.5016 4.79878 15.5404C1.83929 12.5791 1.83929 7.76074 4.79878 4.79953C7.75913 1.83918 12.5784 1.83918 15.5396 4.79953C18.5008 7.76074 18.5008 12.5791 15.5396 15.5404Z" fill="#EDEDED"/>
</g>
<defs>
<clipPath id="clip0_5_123">
<rect width="26" height="26" fill="white"/>
</clipPath>
</defs>
</svg>
