<svg width="16" height="17" viewBox="0 0 16 17" fill="none" xmlns="http://www.w3.org/2000/svg">
<path d="M8 0.579834C3.58873 0.579834 0 4.1561 0 8.55206C0 12.9484 3.58873 16.5243 8 16.5243C12.4116 16.5243 16 12.9483 16 8.55206C16.0001 4.1561 12.4106 0.579834 8 0.579834ZM8 15.473C4.17047 15.473 1.05497 12.3683 1.05497 8.55206C1.05497 4.73582 4.17047 1.63114 8 1.63114C11.8295 1.63114 14.945 4.73582 14.945 8.55206C14.945 12.3683 11.829 15.473 8 15.473ZM8.39157 7.56389L8.24211 7.51586V5.21254C8.58113 5.2405 8.82733 5.33187 8.9829 5.48637C9.17864 5.68091 9.27651 6.00208 9.27651 6.45092H10.8415C10.8415 5.64939 10.5942 5.02998 10.1007 4.59365C9.65457 4.20118 9.03493 3.98458 8.24315 3.94506V3.10575H7.68739V3.96304C6.96263 4.00664 6.37741 4.22689 5.93128 4.6237C5.42153 5.08 5.16687 5.69707 5.16687 6.47454C5.16687 7.10958 5.37778 7.61956 5.80099 8.0043C6.19064 8.35751 6.81962 8.67113 7.68739 8.94479V11.4925C7.36876 11.4447 7.1223 11.3262 6.9466 11.1352C6.72349 10.8847 6.6244 10.5007 6.64863 9.98072H4.98804L4.98159 10.1948C4.98159 11.0203 5.21646 11.6516 5.68708 12.088C6.15692 12.5244 6.82371 12.7687 7.68791 12.8206V13.9987H8.24368V12.8138C9.05148 12.7794 9.70521 12.5443 10.2028 12.1116C10.7483 11.6403 11.0218 11.0038 11.0218 10.201C11.0218 9.5146 10.822 8.97249 10.4227 8.57568C10.023 8.1753 9.34553 7.83772 8.39157 7.56389ZM7.68608 7.32575C7.4424 7.22691 7.24954 7.12122 7.10425 7.01022C6.84489 6.8116 6.71556 6.56981 6.71556 6.28391C6.71556 5.94276 6.82894 5.67692 7.05684 5.48594C7.22147 5.34707 7.42977 5.25978 7.68556 5.22409L7.68608 7.32575ZM9.01331 11.1886C8.81452 11.3631 8.55638 11.4663 8.24211 11.4986V9.11822C8.61302 9.2379 8.88197 9.37747 9.04887 9.54075C9.26928 9.74397 9.37848 10.0012 9.37848 10.3148C9.37848 10.6865 9.25646 10.9782 9.01331 11.1886Z" fill="#1D2730"/>
</svg>
