<svg width="17" height="17" viewBox="0 0 17 17" fill="none" xmlns="http://www.w3.org/2000/svg">
<path d="M8.68765 0.0915527C4.19162 0.0915527 0.533936 3.78261 0.533936 8.31966C0.533936 12.8571 4.19162 16.5478 8.68765 16.5478C13.184 16.5478 16.8414 12.857 16.8414 8.31966C16.8415 3.78261 13.183 0.0915527 8.68765 0.0915527ZM8.68765 15.4627C4.78454 15.4627 1.60918 12.2584 1.60918 8.31966C1.60918 4.38093 4.78454 1.1766 8.68765 1.1766C12.5908 1.1766 15.7661 4.38093 15.7661 8.31966C15.7661 12.2584 12.5902 15.4627 8.68765 15.4627ZM9.08675 7.29977L8.93441 7.2502V4.87295C9.27994 4.90181 9.53088 4.99611 9.68943 5.15557C9.88894 5.35636 9.98869 5.68784 9.98869 6.15108H11.5837C11.5837 5.32382 11.3317 4.68453 10.8287 4.2342C10.374 3.82913 9.74246 3.60558 8.93548 3.56479V2.69854H8.36903V3.58335C7.63035 3.62835 7.03388 3.85566 6.57918 4.26521C6.05964 4.73617 5.80009 5.37303 5.80009 6.17546C5.80009 6.83088 6.01505 7.35723 6.44639 7.75432C6.84353 8.11887 7.48459 8.44255 8.36903 8.725V11.3545C8.04428 11.3052 7.79308 11.1828 7.61401 10.9857C7.38661 10.7272 7.28562 10.3308 7.31031 9.79418H5.61782L5.61124 10.0151C5.61124 10.8671 5.85063 11.5187 6.33029 11.9691C6.80915 12.4195 7.48876 12.6717 8.36956 12.7252V13.9411H8.93601V12.7182C9.75934 12.6827 10.4256 12.4401 10.9327 11.9934C11.4888 11.507 11.7675 10.8501 11.7675 10.0215C11.7675 9.3131 11.5638 8.75359 11.1569 8.34404C10.7495 7.93081 10.059 7.5824 9.08675 7.29977ZM8.3677 7.05399C8.11934 6.95198 7.92277 6.84289 7.77469 6.72834C7.51035 6.52334 7.37853 6.27379 7.37853 5.97871C7.37853 5.62662 7.49409 5.35224 7.72637 5.15513C7.89417 5.0118 8.10646 4.92171 8.36716 4.88487L8.3677 7.05399ZM9.72043 11.0408C9.51782 11.2209 9.25472 11.3274 8.93441 11.3608V8.904C9.31245 9.02752 9.58657 9.17157 9.75667 9.34008C9.98132 9.54983 10.0926 9.81534 10.0926 10.139C10.0926 10.5227 9.96826 10.8237 9.72043 11.0408Z" fill="#1D2730"/>
</svg>
