<svg width="22" height="22" viewBox="0 0 22 22" fill="none" xmlns="http://www.w3.org/2000/svg">
<path d="M20.0025 15.3508L19.5313 14.9716C19.4046 14.8702 19.3023 14.7416 19.232 14.5954C19.1617 14.4491 19.1251 14.2889 19.125 14.1266V9.74996C19.1244 7.86912 18.4712 6.04675 17.277 4.5937C16.0827 3.14065 14.4214 2.14693 12.5763 1.78205C12.4863 1.4331 12.2829 1.12396 11.998 0.903243C11.7132 0.682523 11.3631 0.562744 11.0027 0.562744C10.6424 0.562744 10.2922 0.682523 10.0074 0.903243C9.72254 1.12396 9.51914 1.4331 9.42917 1.78205C7.58306 2.14582 5.92044 3.13906 4.72512 4.59222C3.5298 6.04538 2.87588 7.86835 2.875 9.74996V14.1266C2.8749 14.2889 2.83834 14.4491 2.76803 14.5954C2.69771 14.7416 2.59544 14.8702 2.46876 14.9716L1.99751 15.3508C1.42837 15.8058 0.968463 16.3826 0.651625 17.0388C0.334787 17.695 0.169073 18.4138 0.166672 19.1425V20.0416C0.166672 20.6163 0.394945 21.1674 0.801274 21.5737C1.2076 21.98 1.7587 22.2083 2.33334 22.2083H6.8075C7.05169 23.1333 7.5951 23.9514 8.35299 24.5352C9.11088 25.119 10.0406 25.4355 10.9973 25.4355C11.954 25.4355 12.8837 25.119 13.6416 24.5352C14.3995 23.9514 14.9429 23.1333 15.1871 22.2083H19.6667C20.2413 22.2083 20.7924 21.98 21.1987 21.5737C21.6051 21.1674 21.8333 20.6163 21.8333 20.0416V19.1533C21.8326 18.4228 21.6676 17.7018 21.3507 17.0437C21.0338 16.3855 20.5731 15.8069 20.0025 15.3508ZM11 23.2916C10.6219 23.2893 10.251 23.1882 9.92407 22.9981C9.59718 22.8081 9.32572 22.5358 9.13667 22.2083H12.8688C12.6792 22.5366 12.4069 22.8093 12.079 22.9994C11.7511 23.1895 11.379 23.2903 11 23.2916ZM19.6667 20.0416H2.33334V19.1533C2.33392 18.7474 2.42573 18.3468 2.602 17.9811C2.77827 17.6155 3.03447 17.2941 3.35167 17.0408L3.82292 16.6616C4.20297 16.3574 4.50979 15.9716 4.72074 15.5328C4.93169 15.094 5.04137 14.6135 5.04167 14.1266V9.74996C5.04167 8.16971 5.66942 6.65419 6.78683 5.53678C7.90423 4.41938 9.41976 3.79163 11 3.79163C12.5803 3.79163 14.0958 4.41938 15.2132 5.53678C16.3306 6.65419 16.9583 8.16971 16.9583 9.74996V14.1266C16.9578 14.6144 17.0671 15.096 17.2781 15.5358C17.4891 15.9756 17.7963 16.3622 18.1771 16.667L18.6483 17.0462C18.9648 17.2989 19.2206 17.6194 19.3968 17.9841C19.5731 18.3487 19.6653 18.7483 19.6667 19.1533V20.0416Z" fill="#EDEDED"/>
</svg>
