<svg width="22" height="22" viewBox="0 0 22 26" fill="none" xmlns="http://www.w3.org/2000/svg">
<path d="M22.0025 15.3508L21.5313 14.9716C21.4046 14.8702 21.3023 14.7416 21.232 14.5954C21.1617 14.4491 21.1251 14.2889 21.125 14.1266V9.74996C21.1244 7.86912 20.4712 6.04675 19.277 4.5937C18.0827 3.14065 16.4214 2.14693 14.5763 1.78205C14.4863 1.4331 14.2829 1.12396 13.998 0.903243C13.7132 0.682523 13.3631 0.562744 13.0027 0.562744C12.6424 0.562744 12.2922 0.682523 12.0074 0.903243C11.7225 1.12396 11.5191 1.4331 11.4292 1.78205C9.58306 2.14582 7.92044 3.13906 6.72512 4.59222C5.5298 6.04538 4.87588 7.86835 4.875 9.74996V14.1266C4.8749 14.2889 4.83834 14.4491 4.76803 14.5954C4.69771 14.7416 4.59544 14.8702 4.46875 14.9716L3.99751 15.3508C3.42837 15.8058 2.96846 16.3826 2.65163 17.0388C2.33479 17.695 2.16907 18.4138 2.16667 19.1425V20.0416C2.16667 20.6163 2.39494 21.1674 2.80127 21.5737C3.2076 21.98 3.7587 22.2083 4.33334 22.2083H8.8075C9.05169 23.1333 9.5951 23.9514 10.353 24.5352C11.1109 25.119 12.0406 25.4355 12.9973 25.4355C13.954 25.4355 14.8837 25.119 15.6416 24.5352C16.3995 23.9514 16.9429 23.1333 17.1871 22.2083H21.6667C22.2413 22.2083 22.7924 21.98 23.1987 21.5737C23.6051 21.1674 23.8333 20.6163 23.8333 20.0416V19.1533C23.8326 18.4228 23.6676 17.7018 23.3507 17.0437C23.0338 16.3855 22.5731 15.8069 22.0025 15.3508V15.3508ZM13 23.2916C12.6219 23.2893 12.251 23.1882 11.9241 22.9981C11.5972 22.8081 11.3257 22.5358 11.1367 22.2083H14.8688C14.6792 22.5366 14.4069 22.8093 14.079 22.9994C13.7511 23.1895 13.379 23.2903 13 23.2916ZM21.6667 20.0416H4.33334V19.1533C4.33392 18.7474 4.42573 18.3468 4.602 17.9811C4.77827 17.6155 5.03447 17.2941 5.35167 17.0408L5.82292 16.6616C6.20297 16.3574 6.50979 15.9716 6.72074 15.5328C6.93169 15.094 7.04137 14.6135 7.04167 14.1266V9.74996C7.04167 8.16971 7.66942 6.65419 8.78683 5.53678C9.90423 4.41938 11.4198 3.79163 13 3.79163C14.5803 3.79163 16.0958 4.41938 17.2132 5.53678C18.3306 6.65419 18.9583 8.16971 18.9583 9.74996V14.1266C18.9578 14.6144 19.0671 15.096 19.2781 15.5358C19.4891 15.9756 19.7963 16.3622 20.1771 16.667L20.6483 17.0462C20.9648 17.2989 21.2206 17.6194 21.3968 17.9841C21.5731 18.3487 21.6653 18.7483 21.6667 19.1533V20.0416Z" fill="#EDEDED"/>
<path d="M25.5 5C25.5 6.87926 23.7661 8.5 21.5 8.5C19.2339 8.5 17.5 6.87926 17.5 5C17.5 3.12074 19.2339 1.5 21.5 1.5C23.7661 1.5 25.5 3.12074 25.5 5Z" fill="#FD5959" stroke="#2C3E50"/>
</svg>
