<svg width="22" height="22" viewBox="0 0 22 22" fill="none" xmlns="http://www.w3.org/2000/svg">
<g clip-path="url(#clip0_5_143)">
<path d="M20.4126 7.95862L14.1143 7.02921L11.3266 1.13101C10.9803 0.442885 10.028 0.585872 9.7986 1.13101L7.01091 7.02921L0.70833 7.95862C-0.00157676 8.00331 -0.226669 8.8925 0.258145 9.44211L4.80328 14.04L3.7211 20.4968C3.59557 21.2921 4.444 21.739 4.93747 21.4262L10.5604 18.3609L16.1834 21.3815C16.7721 21.6943 17.4734 21.2564 17.3998 20.5012L16.3176 14.04L20.8627 9.44211C21.4125 8.83888 21.0186 8.03458 20.4126 7.95862ZM14.8329 13.0659C14.6511 13.2983 14.5645 13.5753 14.6078 13.8568L15.4605 19.058L10.963 16.5959C10.673 16.4708 10.4003 16.4708 10.1535 16.5959L5.65603 19.058L6.50879 13.8568C6.55207 13.5306 6.4655 13.2536 6.28369 13.0659L2.64326 9.39743L7.68186 8.65568C7.95024 8.611 8.17533 8.46801 8.31385 8.19098L10.5648 3.49923L12.8157 8.19098C12.9499 8.42333 13.175 8.611 13.4477 8.65568L18.4776 9.39743L14.8329 13.0659Z" fill="#EDEDED"/>
</g>
<defs>
<clipPath id="clip0_5_143">
<rect width="21.125" height="21.8065" fill="white" transform="translate(0 0.193604)"/>
</clipPath>
</defs>
</svg>
