<svg width="60" height="48" viewBox="0 0 60 48" fill="none" xmlns="http://www.w3.org/2000/svg">
<path d="M2 2H5.67774C6.37046 2 6.71682 2 6.99555 2.09953C7.24119 2.18724 7.44935 2.32828 7.5952 2.50589C7.76071 2.70739 7.8097 2.9753 7.90766 3.51109L9.24036 10.8M9.24036 10.8L12.2022 27.8091C12.578 29.9675 12.7659 31.0468 13.4264 31.8591C14.0083 32.5749 14.8426 33.1441 15.8289 33.4983C16.9481 33.9 18.3421 33.9 21.1301 33.9H45.2265C47.8803 33.9 49.2073 33.9 50.2919 33.5269C51.2479 33.198 52.0681 32.6676 52.6608 31.9952C53.3326 31.2327 53.581 30.2143 54.0776 28.1774L57.8045 12.8893C57.9793 12.1724 58.0666 11.8139 57.9399 11.5337C57.829 11.2879 57.6096 11.0809 57.3213 10.9496C56.9927 10.8 56.5259 10.8 55.5916 10.8H9.24036ZM24.5255 43.8C24.5255 45.0151 23.2649 46 21.7098 46C20.1548 46 18.8942 45.0151 18.8942 43.8C18.8942 42.5849 20.1548 41.6 21.7098 41.6C23.2649 41.6 24.5255 42.5849 24.5255 43.8ZM47.0511 43.8C47.0511 45.0151 45.7905 46 44.2354 46C42.6803 46 41.4197 45.0151 41.4197 43.8C41.4197 42.5849 42.6803 41.6 44.2354 41.6C45.7905 41.6 47.0511 42.5849 47.0511 43.8Z" stroke="white" stroke-width="3" stroke-linecap="round" stroke-linejoin="round"/>
</svg>
