<svg width="20" height="20" viewBox="0 0 20 20" fill="none" xmlns="http://www.w3.org/2000/svg">
<path d="M19.9555 7.29486C19.8485 6.96526 19.564 6.72505 19.2215 6.67528L13.413 5.83035L10.8154 0.560223C10.6622 0.249491 10.3461 0.0527344 10 0.0527344C9.65388 0.0527344 9.33776 0.249491 9.18464 0.560223L6.58715 5.83029L0.778529 6.67522C0.436044 6.72505 0.151447 6.96526 0.044519 7.2948C-0.0624092 7.62441 0.0267583 7.98618 0.274621 8.22803L4.47774 12.3296L3.48514 18.1222C3.42664 18.4638 3.56685 18.8089 3.84684 19.0126C4.00523 19.1278 4.19284 19.1864 4.38136 19.1864C4.52605 19.1864 4.67135 19.1519 4.8044 19.0819L9.99994 16.3472L15.1954 19.0819C15.3293 19.1523 15.4758 19.1859 15.621 19.1864C16.1226 19.1857 16.529 18.7784 16.529 18.2761C16.529 18.2062 16.5211 18.138 16.5062 18.0727L15.5222 12.3296L19.7253 8.22803C19.9732 7.98618 20.0624 7.62441 19.9555 7.29486Z" fill="black"/>
</svg>
