<svg width="22" height="21" viewBox="0 0 22 21" fill="none" xmlns="http://www.w3.org/2000/svg">
<path d="M20.4577 7.57481L14.3954 6.69808L11.7121 1.13424C11.3788 0.485131 10.4622 0.620012 10.2413 1.13424L7.55807 6.69808L1.49157 7.57481C0.808253 7.61696 0.591592 8.45575 1.05825 8.9742L5.43313 13.3115L4.39149 19.4022C4.27066 20.1525 5.0873 20.574 5.56229 20.2789L10.9746 17.3874L16.387 20.2368C16.9537 20.5318 17.6286 20.1187 17.5578 19.4064L16.5162 13.3115L20.891 8.9742C21.4202 8.40517 21.041 7.64646 20.4577 7.57481ZM15.087 12.3926C14.912 12.6118 14.8287 12.8731 14.8704 13.1386L15.6912 18.0449L11.3621 15.7225C11.083 15.6044 10.8205 15.6044 10.583 15.7225L6.25394 18.0449L7.07475 13.1386C7.11642 12.8309 7.03308 12.5696 6.85809 12.3926L3.35402 8.93205L8.20389 8.23235C8.46221 8.1902 8.67887 8.05532 8.8122 7.79399L10.9788 3.36821L13.1454 7.79399C13.2746 8.01317 13.4912 8.1902 13.7537 8.23235L18.5953 8.93205L15.087 12.3926Z" fill="black"/>
</svg>
