<svg width="16" height="18" viewBox="0 0 16 18" fill="none" xmlns="http://www.w3.org/2000/svg">
<path d="M7.83143 17.4032C11.8449 17.4032 15.1096 14.101 15.1096 10.0422C15.1096 8.19088 14.4251 6.5015 13.3051 5.2068L13.8867 4.61625L14.4108 5.08912L15.0893 4.32279L13.2129 2.63083L12.5345 3.39715L13.1258 3.93013L12.5839 4.48007C11.4288 3.46808 9.95785 2.82148 8.34075 2.7074V1.97496H9.85801V0.947021H5.80535V1.97496H7.3221V2.70737C3.5465 2.97359 0.553223 6.15709 0.553223 10.0417C0.553223 14.101 3.81797 17.4032 7.83143 17.4032ZM7.83143 3.70908C11.2826 3.70908 14.091 6.54979 14.091 10.0417C14.091 13.5341 11.2826 16.3748 7.83143 16.3748C4.38028 16.3748 1.57187 13.5341 1.57187 10.0417C1.57187 6.54979 4.38028 3.70908 7.83143 3.70908Z" fill="black"/>
<path d="M12.5723 12.3009L8.34186 8.9252V4.76978H7.32324V9.42272L11.9402 13.1069L12.5723 12.3009Z" fill="black"/>
</svg>
