<svg width="15" height="17" viewBox="0 0 15 17" fill="none" xmlns="http://www.w3.org/2000/svg">
<path d="M7.141 16.4202C11.0788 16.4202 14.282 13.2206 14.282 9.28804C14.282 7.49429 13.6104 5.85745 12.5115 4.60301L13.0822 4.03083L13.5964 4.48899L14.262 3.7465L12.421 2.10715L11.7554 2.84964L12.3356 3.36605L11.8039 3.89888C10.6705 2.91836 9.22733 2.29188 7.64072 2.18134V1.47168H9.12937V0.475708H5.15311V1.47168H6.64127V2.18131C2.93685 2.43925 0 5.52375 0 9.28752C0 13.2206 3.2032 16.4202 7.141 16.4202ZM7.141 3.15187C10.5271 3.15187 13.2825 5.90424 13.2825 9.28752C13.2825 12.6713 10.5271 15.4237 7.141 15.4237C3.75491 15.4237 0.999445 12.6713 0.999445 9.28752C0.999445 5.90424 3.75491 3.15187 7.141 3.15187Z" fill="black"/>
<path d="M11.7924 11.4767L7.64169 8.20589V4.17969H6.64227V8.68793L11.1722 12.2575L11.7924 11.4767Z" fill="black"/>
</svg>
